{
  "accessors": [
    {
      "bufferView": 1,
      "componentType": 5126,
      "count": 65532,
      "max": [
        0.9843993186950684,
        1.000382423400879,
        1.0023690462112427
      ],
      "min": [
        -0.9843993186950684,
        -1.000382423400879,
        -1.0023690462112427
      ],
      "type": "VEC3"
    },
    {
      "bufferView": 1,
      "byteOffset": 786384,
      "componentType": 5126,
      "count": 65532,
      "max": [
        0.9999868869781494,
        0.9999960660934448,
        0.9999957084655762
      ],
      "min": [
        -0.9999868869781494,
        -0.9999960660934448,
        -0.9999186992645264
      ],
      "type": "VEC3"
    },
    {
      "bufferView": 0,
      "componentType": 5125,
      "count": 382860,
      "type": "SCALAR"
    },
    {
      "bufferView": 1,
      "byteOffset": 1572768,
      "componentType": 5126,
      "count": 30558,
      "max": [
        0.9843993186950684,
        0.9998540878295898,
        1.0016932487487793
      ],
      "min": [
        -0.9843993186950684,
        -0.9974905252456665,
        -1.0016932487487793
      ],
      "type": "VEC3"
    },
    {
      "bufferView": 1,
      "byteOffset": 1939464,
      "componentType": 5126,
      "count": 30558,
      "max": [
        0.9998949766159058,
        0.999900221824646,
        0.999890923500061
      ],
      "min": [
        -0.9998422861099243,
        -0.9999004602432251,
        -0.9999957084655762
      ],
      "type": "VEC3"
    },
    {
      "bufferView": 0,
      "byteOffset": 1531440,
      "componentType": 5125,
      "count": 170100,
      "type": "SCALAR"
    }
  ],
  "asset": {
    "extras": {
      "author": "eptecstore (https://sketchfab.com/eptecstore)",
      "license": "CC-BY-4.0 (http://creativecommons.org/licenses/by/4.0/)",
      "source": "https://sketchfab.com/3d-models/3d-ball-for-3d-printing-model-4c18cf9988bb4167b694d53265a61ad0",
      "title": "3D Ball For 3D Printing Model"
    },
    "generator": "Sketchfab-12.66.0",
    "version": "2.0"
  },
  "bufferViews": [
    {
      "buffer": 0,
      "byteLength": 2211840,
      "name": "floatBufferViews",
      "target": 34963
    },
    {
      "buffer": 0,
      "byteLength": 2306160,
      "byteOffset": 2211840,
      "byteStride": 12,
      "name": "floatBufferViews",
      "target": 34962
    }
  ],
  "buffers": [
    {
      "byteLength": 4518000,
      "uri": "scene.bin"
    }
  ],
  "materials": [
    {
      "doubleSided": true,
      "name": "Material.001",
      "pbrMetallicRoughness": {
        "baseColorFactor": [
          0.8,
          0.8,
          0.8,
          1.0
        ],
        "metallicFactor": 0.0,
        "roughnessFactor": 0.9577051494623774
      }
    }
  ],
  "meshes": [
    {
      "name": "Icosphere.001_Material.001_0",
      "primitives": [
        {
          "attributes": {
            "NORMAL": 1,
            "POSITION": 0
          },
          "indices": 2,
          "material": 0,
          "mode": 4
        }
      ]
    },
    {
      "name": "Icosphere.001_Material.001_0",
      "primitives": [
        {
          "attributes": {
            "NORMAL": 4,
            "POSITION": 3
          },
          "indices": 5,
          "material": 0,
          "mode": 4
        }
      ]
    }
  ],
  "nodes": [
    {
      "children": [
        1
      ],
      "matrix": [
        1.0,
        0.0,
        0.0,
        0.0,
        0.0,
        2.220446049250313e-16,
        -1.0,
        0.0,
        0.0,
        1.0,
        2.220446049250313e-16,
        0.0,
        0.0,
        0.0,
        0.0,
        1.0
      ],
      "name": "Sketchfab_model"
    },
    {
      "children": [
        2
      ],
      "matrix": [
        1.0,
        0.0,
        0.0,
        0.0,
        0.0,
        0.0,
        1.0,
        0.0,
        0.0,
        -1.0,
        0.0,
        0.0,
        0.0,
        0.0,
        0.0,
        1.0
      ],
      "name": "c3511b4425814d16973e172d7a4803bf.fbx"
    },
    {
      "children": [
        3
      ],
      "name": "RootNode"
    },
    {
      "children": [
        4,
        5
      ],
      "matrix": [
        2.03169584274292,
        0.0,
        0.0,
        0.0,
        0.0,
        -3.257168076880651e-07,
        -1.9992355108260844,
        0.0,
        0.0,
        1.9952729940414164,
        -3.2507123176140544e-07,
        0.0,
        0.008504534140229225,
        9.992080688476563,
        3.303802251815796,
        1.0
      ],
      "name": "Icosphere.001"
    },
    {
      "mesh": 0,
      "name": "Icosphere.001_Material.001_0"
    },
    {
      "mesh": 1,
      "name": "Icosphere.001_Material.001_0"
    }
  ],
  "scene": 0,
  "scenes": [
    {
      "name": "Sketchfab_Scene",
      "nodes": [
        0
      ]
    }
  ]
}
